<svg width="263" height="245" viewBox="0 0 263 245" fill="none" xmlns="http://www.w3.org/2000/svg">
<path d="M123.429 189.815L154.964 167.533V144.562V144.332" stroke="white" stroke-width="5"/>
<path d="M123.126 244.091V141.3C123.126 88.176 205.804 45.9883 247.142 31.5349" stroke="white" stroke-width="5"/>
<path d="M123.126 136.448C123.126 95.2107 63.8975 78.0283 34.2832 74.5919" stroke="white" stroke-width="5"/>
<mask id="path-4-inside-1_31_35" fill="white">
<ellipse cx="154.661" cy="140.997" rx="4.54827" ry="4.54827"/>
</mask>
<ellipse cx="154.661" cy="140.997" rx="4.54827" ry="4.54827" fill="white"/>
<path d="M159.209 140.997H154.209C154.209 140.747 154.411 140.545 154.661 140.545V145.545V150.545C159.934 150.545 164.209 146.27 164.209 140.997H159.209ZM154.661 145.545V140.545C154.91 140.545 155.113 140.747 155.113 140.997H150.113H145.113C145.113 146.27 149.387 150.545 154.661 150.545V145.545ZM150.113 140.997H155.113C155.113 141.246 154.91 141.448 154.661 141.448V136.448V131.448C149.387 131.448 145.113 135.723 145.113 140.997H150.113ZM154.661 136.448V141.448C154.411 141.448 154.209 141.246 154.209 140.997H159.209H164.209C164.209 135.723 159.934 131.448 154.661 131.448V136.448Z" fill="white" mask="url(#path-4-inside-1_31_35)"/>
<path d="M86.4363 146.226C87.5674 146.226 88.4849 147.142 88.4851 148.273C88.4851 149.405 87.5675 150.322 86.4363 150.322C85.3053 150.322 84.3885 149.404 84.3885 148.273C84.3887 147.142 85.3054 146.226 86.4363 146.226Z" fill="white" stroke="white" stroke-width="5"/>
<path d="M123.126 209.827L96.4429 190.421V158.583L88.2561 150.396" stroke="white" stroke-width="5"/>
<path fill-rule="evenodd" clip-rule="evenodd" d="M173.166 15.2873C205.488 -8.72785 262.841 2.72529 263 2.75707C263 2.75707 259.502 52.857 227.135 76.9055C194.769 100.954 147.696 90.7883 147.696 90.7883C147.693 90.7717 147.598 90.0457 147.482 88.7385C153.655 82.5375 166.748 69.5289 176.489 60.8459C190.658 48.2144 214.101 30.1448 214.101 30.1448C214.101 30.1448 182.689 40.8249 167.406 56.2219C159.283 64.4046 151.501 77.8663 147.269 85.8186C146.491 72.3396 146.91 34.7962 173.166 15.2873Z" fill="white"/>
<path fill-rule="evenodd" clip-rule="evenodd" d="M0.00246336 17.4288C0.00246336 17.4288 47.8155 9.6598 69.4566 26.3799C84.4277 37.9469 90.9581 64.3931 93.6265 80.3965C89.014 66.4789 66.6197 54.4991 66.6197 54.4991L33.0708 36.6065C33.1839 36.6974 52.9534 52.5921 65.0269 63.4278C76.2471 73.4977 92.6331 89.6206 95.1919 92.1446C95.2705 92.974 95.3062 93.4239 95.3062 93.4239C95.2744 93.4317 51.8443 104.141 25.5366 83.1631C-0.733291 62.2153 -0.000259458 17.5892 0.00246336 17.4288Z" fill="white"/>
<path d="M147.08 244.394V196.789L207.724 154.035V107.339" stroke="white" stroke-width="5"/>
<path d="M172.551 179.202V148.88L184.679 130.99V124.926" stroke="white" stroke-width="5"/>
<path d="M147.384 226.807L189.228 203.156" stroke="white" stroke-width="5"/>
<mask id="path-13-inside-2_31_35" fill="white">
<ellipse cx="191.653" cy="201.64" rx="4.54827" ry="4.54827"/>
</mask>
<ellipse cx="191.653" cy="201.64" rx="4.54827" ry="4.54827" fill="white"/>
<path d="M196.202 201.64H191.202C191.202 201.391 191.404 201.188 191.653 201.188V206.188V211.188C196.927 211.188 201.202 206.913 201.202 201.64H196.202ZM191.653 206.188V201.188C191.903 201.188 192.105 201.391 192.105 201.64H187.105H182.105C182.105 206.913 186.38 211.188 191.653 211.188V206.188ZM187.105 201.64H192.105C192.105 201.89 191.903 202.092 191.653 202.092V197.092V192.092C186.38 192.092 182.105 196.367 182.105 201.64H187.105ZM191.653 197.092V202.092C191.404 202.092 191.202 201.89 191.202 201.64H196.202H201.202C201.202 196.367 196.927 192.092 191.653 192.092V197.092Z" fill="white" mask="url(#path-13-inside-2_31_35)"/>
<mask id="path-15-inside-3_31_35" fill="white">
<ellipse cx="207.421" cy="105.217" rx="4.54827" ry="4.54827"/>
</mask>
<ellipse cx="207.421" cy="105.217" rx="4.54827" ry="4.54827" fill="white"/>
<path d="M211.969 105.217H206.969C206.969 104.967 207.171 104.765 207.421 104.765V109.765V114.765C212.694 114.765 216.969 110.49 216.969 105.217H211.969ZM207.421 109.765V104.765C207.67 104.765 207.873 104.967 207.873 105.217H202.873H197.873C197.873 110.49 202.147 114.765 207.421 114.765V109.765ZM202.873 105.217H207.873C207.873 105.466 207.67 105.669 207.421 105.669V100.669V95.6686C202.147 95.6686 197.873 99.9435 197.873 105.217H202.873ZM207.421 100.669V105.669C207.171 105.669 206.969 105.466 206.969 105.217H211.969H216.969C216.969 99.9435 212.694 95.6686 207.421 95.6686V100.669Z" fill="white" mask="url(#path-15-inside-3_31_35)"/>
<mask id="path-17-inside-4_31_35" fill="white">
<ellipse cx="184.376" cy="121.591" rx="4.54827" ry="4.54827"/>
</mask>
<ellipse cx="184.376" cy="121.591" rx="4.54827" ry="4.54827" fill="white"/>
<path d="M188.924 121.591H183.924C183.924 121.341 184.127 121.139 184.376 121.139V126.139V131.139C189.65 131.139 193.924 126.864 193.924 121.591H188.924ZM184.376 126.139V121.139C184.626 121.139 184.828 121.341 184.828 121.591H179.828H174.828C174.828 126.864 179.103 131.139 184.376 131.139V126.139ZM179.828 121.591H184.828C184.828 121.84 184.626 122.042 184.376 122.042V117.042V112.042C179.103 112.042 174.828 116.317 174.828 121.591H179.828ZM184.376 117.042V122.042C184.127 122.042 183.924 121.84 183.924 121.591H188.924H193.924C193.924 116.317 189.65 112.042 184.376 112.042V117.042Z" fill="white" mask="url(#path-17-inside-4_31_35)"/>
<path d="M97.6558 245V215.285L76.1273 197.395V166.77L70.6694 160.706L63.089 151.912" stroke="white" stroke-width="5"/>
<path d="M63.3922 152.822V137.055" stroke="white" stroke-width="5"/>
<path d="M63.0885 133.49C64.2196 133.49 65.1371 134.407 65.1374 135.538C65.1374 136.669 64.2198 137.587 63.0885 137.587C61.9575 137.587 61.0407 136.669 61.0407 135.538C61.0409 134.407 61.9576 133.491 63.0885 133.49Z" fill="white" stroke="white" stroke-width="5"/>
<path d="M61.2692 171.089C62.4003 171.089 63.3178 172.006 63.318 173.137C63.318 174.268 62.4005 175.186 61.2692 175.186C60.1382 175.186 59.2214 174.268 59.2214 173.137C59.2216 172.006 60.1383 171.09 61.2692 171.089Z" fill="white" stroke="white" stroke-width="5"/>
<path d="M44.289 130.458C45.4201 130.458 46.3376 131.375 46.3378 132.506C46.3378 133.637 45.4202 134.555 44.289 134.555C43.158 134.555 42.2412 133.637 42.2412 132.506C42.2414 131.375 43.1581 130.458 44.289 130.458Z" fill="white" stroke="white" stroke-width="5"/>
<path d="M59.7535 171.622L44.2894 154.035V135.539" stroke="white" stroke-width="5"/>
</svg>
