<svg width="434" height="403" viewBox="0 0 434 403" fill="none" xmlns="http://www.w3.org/2000/svg">
<path d="M203.532 313L255.532 276.258V238.379V238" stroke="#04FA56" stroke-width="5"/>
<path d="M203.032 402.5V233C203.032 145.4 339.365 75.8333 407.532 52" stroke="#04FA56" stroke-width="5"/>
<path d="M203.032 225C203.032 157 105.365 128.667 56.5316 123" stroke="#04FA56" stroke-width="5"/>
<circle cx="255.032" cy="232.5" r="5" fill="#04FA56" stroke="#04FA56" stroke-width="5"/>
<path d="M142.532 239.5C145.293 239.5 147.532 241.739 147.532 244.5C147.532 247.261 145.293 249.5 142.532 249.5C139.77 249.5 137.532 247.261 137.532 244.5C137.532 241.739 139.77 239.5 142.532 239.5Z" fill="#04FA56" stroke="#04FA56" stroke-width="5"/>
<path d="M203.032 346L159.032 314V261.5L145.532 248" stroke="#04FA56" stroke-width="5"/>
<path fill-rule="evenodd" clip-rule="evenodd" d="M285.546 25.208C338.861 -14.4051 433.479 4.50636 433.681 4.54689C433.666 4.76208 427.843 87.2116 374.541 126.815C321.169 166.471 243.546 149.708 243.546 149.708C243.544 149.692 243.386 148.494 243.194 146.327C253.374 136.102 274.964 114.651 291.025 100.333C314.361 79.5298 352.95 49.7821 353.046 49.708C352.904 49.7566 301.214 67.3536 276.046 92.708C262.653 106.201 249.821 128.401 242.843 141.514C241.561 119.288 242.249 57.3783 285.546 25.208Z" fill="#04FA56"/>
<path fill-rule="evenodd" clip-rule="evenodd" d="M0.00425738 28.7383C0.154897 28.7138 78.8802 15.9551 114.532 43.5C139.218 62.5733 149.992 106.18 154.392 132.569C146.797 109.656 109.971 89.9293 109.855 89.8672L54.5316 60.3623C54.5316 60.3623 87.2608 86.6717 107.227 104.591C125.738 121.204 152.775 147.809 156.974 151.951C157.103 153.314 157.158 154.054 157.158 154.054C157.158 154.054 85.5054 171.739 42.1087 137.135C-1.28791 102.53 0.00425738 28.7383 0.00425738 28.7383Z" fill="#04FA56"/>
<path d="M242.532 403V324.5L342.532 254V177" stroke="#04FA56" stroke-width="5"/>
<path d="M284.532 295.5V245.5L304.532 216V206" stroke="#04FA56" stroke-width="5"/>
<path d="M243.032 374L312.032 335" stroke="#04FA56" stroke-width="5"/>
<circle cx="316.032" cy="332.5" r="5" fill="#04FA56" stroke="#04FA56" stroke-width="5"/>
<circle cx="342.032" cy="173.5" r="5" fill="#04FA56" stroke="#04FA56" stroke-width="5"/>
<circle cx="304.032" cy="200.5" r="5" fill="#04FA56" stroke="#04FA56" stroke-width="5"/>
<path d="M161.032 404V355L125.532 325.5V275L116.532 265L104.032 250.5" stroke="#04FA56" stroke-width="5"/>
<path d="M104.532 252V226" stroke="#04FA56" stroke-width="5"/>
<path d="M104.032 218.5C106.793 218.5 109.032 220.739 109.032 223.5C109.032 226.261 106.793 228.5 104.032 228.5C101.27 228.5 99.0316 226.261 99.0316 223.5C99.0316 220.739 101.27 218.5 104.032 218.5Z" fill="#04FA56" stroke="#04FA56" stroke-width="5"/>
<path d="M101.032 280.5C103.793 280.5 106.032 282.739 106.032 285.5C106.032 288.261 103.793 290.5 101.032 290.5C98.2702 290.5 96.0316 288.261 96.0316 285.5C96.0316 282.739 98.2702 280.5 101.032 280.5Z" fill="#04FA56" stroke="#04FA56" stroke-width="5"/>
<path d="M73.0316 213.5C75.793 213.5 78.0316 215.739 78.0316 218.5C78.0316 221.261 75.793 223.5 73.0316 223.5C70.2702 223.5 68.0316 221.261 68.0316 218.5C68.0316 215.739 70.2702 213.5 73.0316 213.5Z" fill="#04FA56" stroke="#04FA56" stroke-width="5"/>
<path d="M98.5316 283L73.0316 254V223.5" stroke="#04FA56" stroke-width="5"/>
</svg>
